<svg xmlns="http://www.w3.org/2000/svg" viewBox="0 0 458.79 301.82"><defs><style>.cls-1{opacity:0.46;}.cls-2{fill:#ffd57c;}</style></defs><g id="Layer_2" data-name="Layer 2"><g id="Layer_1-2" data-name="Layer 1"><g class="cls-1"><path class="cls-2" d="M0,244.86v-5c2-.31,4.28-.13,4.77-2.91l1.07-.07C6,239.2,7.12,240,9.47,239.43c7.9-1.75,15.82-3.35,23.73-5,.92-.2,1.94-.29,2.51-1.32,1.46-2.62-.44-15-2.71-17.27,0-.33,0-.67,0-1,3.41.14,3.9,2.63,4,5.22.22,3.65.25,7.31.39,11,.1,2.61,1.59,3.38,3.6,2,5.28-3.52,10.14-1.83,15.56-.07,3.39,1.1,7,6.14,11.25,1.28,0,0,1,.39,1,.71.75,2.85,3.06,1.93,4.91,2.14,9.76,1.11,19-2.14,28.81-3.44a14.76,14.76,0,0,0-1.19-1.85c-4.54-5-10-9.38-11-16.79-.24-1.89-2-2.21-3.52-1.89-6.39,1.36-9-2.47-11-7.55-.58-1.5-1-3.19-3-4.37-1.49,4.88-3.22,9.5-.4,14.38l-1,.77a10,10,0,0,1-1.83-8.94C71,202,71,196.53,71.32,191.06c.59-8.9,0-18,4.19-26.38a5.59,5.59,0,0,0,.16-2.92c-.66-5.66-1.9-11.18-5.07-16-3.38-5.18-6.88-10.2-5.73-17,.22-1.3-.64-2.92-1.35-4.21A13.58,13.58,0,0,1,62,116.39c.95-9,1.12-17.74-5.2-25.25-.91-1.08-1.1-2.76-1.68-4.13-2.86-6.81-8.73-10.43-15.86-9.73C32.32,78,25.37,79.17,18.6,75.9c-1.13,3.8-.29,7.18-.43,10.59C15,82.28,18.43,76.34,14,72.37,9.93,68.7,5.94,65.5,0,67V63c9.61.79,11.93-2.42,8.26-11.4a9.78,9.78,0,0,1-.38-1.41l.92-1.1c2.08,3.87,3.81,7.74,1.9,12.28-.74,1.75.29,3.38,1.5,4.47,5.24,4.67,10.58,8.77,18.37,8.49,6.38-.23,12.71-2.09,20.22-.21-5.1-8.92-6.12-18-7.06-27.07H44.8c1.18,5.45,1.61,5.85,5.61,2C60.1,39.73,72.3,34.3,83.29,27A5.31,5.31,0,0,0,86,23.16c.47-4.46,2.7-7.29,7-8.63,1.26-.4,2.68-1.18,2.55-2.73C95.21,7.4,97.65,3.88,99,0h4c.07,2.28-1.43,3.92-2.28,5.85-1.13,2.59-2.89,6,.46,7.8,4.13,2.23-1.61,1.33-.51,2.3l-2.25.14c-5,1.7-8.46,4.81-9.32,10.32a3.73,3.73,0,0,1-2.23,3.13c-5.7,1.8-9.32,7.19-14.8,8.94-7.85,2.51-12.56,9-18.87,13.41-2.86,2-2.1,5-1.44,7.75.51,2.11.87,4.84,4.26,4.3v2c-1.53,3-1.83,6.82.72,8.57,2.74,1.88,6.37.29,9.08-1.89A9.19,9.19,0,0,0,68,70c1.1-2,4.27-3.6,3.39-5.55s-4.2-.32-6.36-.92l0-1.33c8.32.33,16.37-2.58,24.78-1.78,5,.48,9.25-3,13.15-5.45,2.62-1.67.59-6.22.81-9.47.12-1.82,0-3.66-.07-5.49h1.1c.23,4,.48,7.94.69,11.9.09,1.67,0,3.65,2.22,3.79,8.93.53,17.36,4.39,26.49,3.7,3.44-.26,6.54,0,7.55-4.41.44-1.91,2.2-3.25,4.12-4.07l1.07.93c-.65.51-1.3,1-1.95,1.55-1.64,1.32-2.9,3.2-2.58,5.13.41,2.45,3,1.35,4.61,1.63,7.15,1.27,14.53,1.29,21.31,4.5,2.5,1.19,5.13,2.4,8,2.46,1.68,0,3.06,0,2.31-2.37-1.74-5.52-1.21-11.13-.52-16.74l1.08,1.41c0,3.48-.17,7,.05,10.43.36,5.75,3.21,9.38,9,11a68,68,0,0,0,18.17,2.39c3.5,0,4.56-1,4.4-4.56-1.1-22.87-2-45.76-3-68.64h4l1.93,1.83c-2.56.73-1.85,2.83-1.8,4.54.2,6.15.52,12.29.77,18.43.63,15.45,1.33,30.89,1.8,46.34.11,3.49,1.11,4.09,4.45,3.22,9.26-2.38,18.61-4.42,27.95-6.47a10,10,0,0,0,3.88-2c5.2.69,10.21-.37,15.31-1.22,6.59-1.1,12.54-5.22,19.11-5.19,20.76.1,41-3.61,61.31-7.1,2.09-.36,6.52,1,5.85-3.3s-4.36-1-6.62-1.58l0-1.34c6.38-1,6.16-1,5.32-7.38C349.77,28,345.14,18.2,341.77,8c2.66-2,2.83-5,3.07-8h4c.69,2.09-.41,3.91-1.1,5.69a11,11,0,0,0,.2,8.65c.78,1.85,1.71,2.13,3.37,1.08C359.94,9.93,369.48,6,377.83,0h8c-.06.34-.12.68-.19,1l-2,1.07c-11,5.16-20.92,12.13-31.45,18.08-1.41.8-1.45,1.89-1.11,3.38,3.42,15,3.4,15,18.69,17,7.93,1,7.93,1,10.13-6.21,0-.12.44-.13.66-.19.93,1.74-1.1,4.87,2.29,5.26,2.42.29,4.73-.25,5.15-3.35l1.45,0c-.93,4.77,2.59,5.59,5.7,5.37,5.26-.37,10.53-.72,15.72-2.31,5.64-1.73,11.4-3.87,17.56-2.58a3.77,3.77,0,0,0,3.31-.72c2.69-2.35,5.91-2.59,9.26-3,3.75-.47,8-1.1,7.16-6.7l1.39,0c1.42,2.68,3.66,2.21,6.52,1.67C452.25,19,448.56,10.78,442,4.11,441,3,438.71,2.34,439.8,0h4c6.63,7,10.86,15.45,15,24v8c-1.49,0-3,0-4.47.06a8,8,0,0,0-7.66,9.38c1.51,10.87,1.15,21.76.06,32.65-.14,1.33-1.53,2.8.25,4s2.36-1.49,3.86-1.19c.9,4.79,5.08,3.12,8,4v2c-2.9-.7-5.85-1.25-8.7-2.13s-4.21-.48-4.4,2.92c-.42,7.31-1.23,14.59-1.84,21.88-.15,1.82-.64,4,.54,5.36,5.22,6,5.73,12.64,3.34,19.84a1.67,1.67,0,0,0,0,1c2.32,6.94-.36,13-3.37,19-1.87,3.71-1.07,6,3.38,6.4l-.11,1.46c-4.49-.47-5.25,1.48-3.28,8.81l3.24-2.11.21,1.59c-2.63,3-5.66,5.64-6.39,9.86-.86,5,.35,6.65,5.37,7,0,.33,0,.65,0,1a13.41,13.41,0,0,1-2.42.39c-4.48,0-3.73,2.81-3.37,5.7.42,3.29,1.67,4.44,5.19,3.57,4.1-1,8.28-2.17,12.62-1.53v3c-2.28.36-4.57.74-6.85,1.09-5.21.81-5.87,1.77-4.25,6.93.74,2.36,1.85,4.6,2.79,6.9l-1.46,0c-2.35-3.94-3.15-9.83-7.76-11.11-5.28-1.46-7.49-5-10-8.87-.76-1.19-1.26-3.26-3.08-2.75-4.07,1.12-8.72,1.1-11.44,5.25-5.36,8.19-10.89,16.24-15.07,25.18-3.48,7.45-2.28,14.16,1.64,20.83a30.9,30.9,0,0,0,6,7.27,30.45,30.45,0,0,1,8.07,11.82c.48,1.26.41,3.24,2.52,3.17a3.23,3.23,0,0,0,3.11-2.74l1.54,0c.33,3.14-3.42,3.73-3.94,6.48-1.45,7.54.83,14.66,2.14,21.89,0,.1.61.1.93.14.08.55.16,1.1.23,1.65q-1.56,6.38-3.13,12.73h-6c1-1.7,1.89-3.43,2.88-5.12,1.11-1.88,2.38-4,.78-5.91s-3.61-.16-5.43.3l-.91-.92c6.11-1.1,6.9-4.95,5.56-10.22-.68-2.67-.71-5.5-1.12-8.25-.23-1.58-.24-3.5-2.78-3l-.2-1.35c1-1.1.14-1.42-.75-1.7v-1.5c2.69-.54,1.73-2.13,1.17-3.76-1.9-5.49-5.49-9.7-9.58-13.71a27.85,27.85,0,0,1-8.65-21.4c-.82-1.5-2.32-1.49-3.72-1.71,7.49-2.92,7.34-10.5,11.41-17.24-9.19,2-16.92,2.57-24.33-.89A22.94,22.94,0,0,0,364,204a49,49,0,0,1-25.07-.33c-3.23-.94-5.78.52-8.24,2.4-2.92,2.21-.26,2.32,1,3l-1.22,1a16.77,16.77,0,0,0-2.94-.51c-2.77,0-4.73,1.94-6.12,3.79-1.6,2.12,1.53,2.73,2.44,4,2.6,3.63,8.17,3.76,10.14,8.28l-.81,1c-3.32-4.47-9.4-5.39-12.75-9.94-1.25-1.7-3-.47-4.43.46-3.6,2.37-7,5.23-11.22,6.33-6.84,1.79-12.92,5.14-19,8.51-12.79,7.05-25.48,14.3-38.48,20.94-4.89,2.5-7.67,5.25-6.34,10.9h-1.2c0-2,.12-5.3-1.34-5.32-2.95,0-5.52,2.18-8.31,4.21,2.31,1.61,5.05.24,6.75,2.08a7.7,7.7,0,0,0,0,.83c-2.18.67-4.15-.65-6.28-.66-2.44,0-4.46.34-5.19,3.45,5,.16,9.66.89,14.35-.24l.1,1.43c-4.25,1.38-8.59.35-12.89.49-1.42.05-3.09-.33-4,1.32-1.23,2.21,1.4,10,3.93,11.72l.36,1.32a1.63,1.63,0,0,0-.61,2.33l-1.53,0c-3.51-3.19-5.14,1.06-7.55,2s-1.13,2.91-.75,4.65c.68,3.15,3.08,5.41,4.11,8.36h-4c-2.23-4.6-7.51-8.31-4.18-14.56.47-.9,1.42-2.35-.1-3s-3.31-.67-4,1.55h-1.5c.18-1.75-.64-2.31-2.26-1.9-.07-.49-.14-1-.2-1.47,1.18-1.12.91-3.55,3.25-3.64.14,1.31-.87,3.16,1.63,3.33,1.62.11,3.44.77,4.54-1a4.86,4.86,0,0,0,.61-4.74c-1.18-2.25-3.3.27-4.87-.56,1.1-4.12-.74-6.42-4.47-8a42.36,42.36,0,0,1-6.69-4.21c-2.25-1.54-2.14-6.2-5.29-5.7-2.65.43-4.95,3.12-7.38,4.83-1.22.85-2.35,1.87-3.62,2.62-4,2.39-6.26,5.66-5.45,10.53-9.33,3-16.29,13-9,22-3.1-.5-2.87,2.42-4,3.92h-3c1.4-4.45-1.82-7.05-4-10.06,1.69-.23,5.14,3.33,4.64-1.63-.64-6.43,2.71-10.3,7.24-13.78,2.14-1.65,3.79-3.56,3.13-6.56,5.36-6.1,12.25-10.31,18.67-15.08.64-.48,1.39-1,1-2a1.74,1.74,0,0,0-2.09-1c-5.87,1.59-9-2.6-12.82-5.72-6.49-5.28-12.26-11.76-21.17-13.31-6.45-1.13-6.43-1.25-6,5.13l-1.39,0c.41-5-2-7-6.94-7.26-2.71-.14-5.27.34-7.9.42l-2.15-.17c-5.67,1.42-11,3.59-15.07,7.94l-.9,1c-6.74-1.77-13.6-2.87-20.43-1a49.64,49.64,0,0,1-17.74,1.93c-6-.55-11.25.13-13.49,6.88,0,0-.55-.14-.85-.22,2.26-7.17,2.26-7.16-5.3-9.89-1.41-.5-2.77-1.14-4.16-1.69-5.32-2.13-11.9-.49-16.21,4l-1.17,0c-.19-1.07-.61-2-1.89-1.78Q16.92,241.42,0,244.86ZM64.94,82.55v1.22c-7,.74-7.13.79-4,7.06,2.2,4.45,4.68,8.76,7,13.12v1.83a2.06,2.06,0,0,0-1.89,1.93c-1.89,10.3,3,19.71,3.86,29.66.08.89,1,1.72,1.52,2.54,6.69,9.86,10.33,20.21,5.85,32.17-1,2.59-1.09,5.52-1.44,8.31-.14,1.09-.38,2.84.83,3.13,5.51,1.31,9.45,7.82,16.2,4.93l.05,1.28c-4.6.87-8.94,1.89-12.61-2.86-1.87-2.43-4.11-1.73-5.08,1.95-1.44,5.44,1.82,9.34,3.32,13.93,1.63,5,4.34,7.18,9.48,6.53,2.49-.31,5.19,0,5.54,2.89,1.09,8.94,8,13.78,13.22,19.89,2.27,2.67,4.45,3.22,7.82,1.92,6.84-2.63,12.61-8.3,20.71-7.54.31,0,.72-1,1.09-1.51l1.34,0c1.06,2.35,3.32,1.87,5.2,2.12,10.87,1.48,21.64,2.63,30.18,11.07,5.1,5,10,10.26,18.82,10.37,7.3.09,12.11-1.15,14.06-8.6l1.41-.33c1.15,0,2.29.13,3.43.13,4.81,0,6.86-1.95,6.27-7.2-.78-6.88-.69-13.85-1-20.79-.53-12.93-.53-12.93-13.22-15l0-1.4,5.45.66c7,.88,7,.88,7-6.45,0-6.17-.18-12.27,4.82-17.2,4.25-4.2,4.11-6.08.35-10.64-3.56-4.3-6.49-8.84-6.7-14.68-.27-7.48-.64-15-.94-22.44-.55-14.13-1.16-28.25-1.57-42.39-.11-3.71-1.31-5.68-5.28-5.28-6.75.68-13.21-1.06-19.7-2.48-.66-.14-1.29-.27-.62.72L187,78.87l-.93,1c-2.28-2.49-1.76-7.4-6-8-9.07-1.4-17.32-5.58-26.43-7-12.81-2-25.89-.78-38.57-3.78l-2-.08c-5-2.12-9.88-2.65-14.58.64a14.93,14.93,0,0,1-11.38,2.48C77.31,62.4,72.85,68.66,69,76l-1,1c-3.21.72-6.22,2.32-9.67,2-1.09-.1-2.65-.25-2.66,1.41A2.39,2.39,0,0,0,58,82.53C60.29,82.69,62.62,82.56,64.94,82.55Zm368.44,77.3-1.36,0-2.31-4c2.13.17,4.26.42,6.4.49,1.3,0,2.9.06,3.19-1.65,1.29-7.64,7.64-14.19,4.68-22.82-.85-2.46-.09-5.29,1.09-7.74a5.14,5.14,0,0,0-.81-6c-4.08-4.79-4.72-10.39-4.12-16.37.64-6.25,1.11-12.53,1.66-18.79,0-.71,0-1.41-.05-2.11-1.1-4.37-5.46-2.35-7.93-4V75.37a14.13,14.13,0,0,1,2.93.62c4.42,1.87,6.38.41,6.53-4.34.33-10.12,1.39-20.26-.54-30.33-.93-4.83-2.87-5.68-7.39-3.35-2,1.05-3.75,3-6.34,2.37-4.43-1-8.66.08-12.76,1.4-6.55,2.1-13.37,2.51-20.09,3.43-6.33.86-7.05,1.77-4.32,7.76l-.94,1c-2.27-2.42-4.64-4.76-6-7.86-.57-1.27-1.39-2.54-2.95-2.18-7.87,1.85-15.53-.24-23.24-1.12-2.37-.27-2.74.71-2.69,2.82.29,12.52,8.56,23.46,7,36.57-.26,2.11,1.43,6,1.55,9.21.14,3.32.64,6.08,4.88,6.27-.95,1.71-3.84,1.17-2.92,3.77,1.73,4.89,1,11.09,7.35,13.47.57,1-.52,1.93-.41,2.79.48,3.86-2.53,8.18,1,11.57,5.44,5.18,11.17,9.79,19.33,10.17,4.09.18,8.12,1.59,12.22,2.2a16,16,0,0,1,12.1,7.9c2.22,4,5.37,5,9.22,5.47.9.12,2.05-.37,2.48,1-2.49-.05-5-.13-7.48-.16-1.19,0-2.77.07-2.45,1.66.91,4.48.62,9.37,4.27,13,2.79,2.75,6.15,1.09,9,.78,1.92-.2.05-2.78.06-4.29l1.34,0c.6,1.74,1.71,2.9,3.66,2.49s1.42-2.28,1.48-3.65a28.62,28.62,0,0,0-.1-3.93c-.12-1.4.33-3.3-1.71-3.56C436.27,158.07,434.17,157.31,433.38,159.85Zm-223.4,88c-4.4-2.24-5.26.82-6,4-2.11.74-5,1.29-5.33,3.54s1.48,4.78,3.47,6.16a93.52,93.52,0,0,0,9.08,5c1.51.75,3-.83,4.88.67,3.3,2.71,5.06.06,5.68-2.94.48-2.3.79-4.41,3.19-5.46,1.32,3.8,2.7.17,3.9-.11,1.37-.32,2.68-1.22,1.43-3.2-1.57-2.48-2.27.33-3.4.41-.4-1.7-.51-3.39-3.23-2.9-2.56.46-5.13,1.4-7.82.88a10,10,0,0,0,2.13-1.95,7.72,7.72,0,0,0,.08-7.86c-1.22-2-3.81-1.24-5.89-.78C209.47,243.89,209.61,245.83,210,247.87Zm21,2c.31,2.63-1.1,7.09,4.05,5.37,4.12-1.38,7.81-4,12.32-6.46a63.51,63.51,0,0,1-6.32-3.55c-2.69-2-5-1.9-7.11.72-.58-1.57-.7-3.47-3.31-3a26.7,26.7,0,0,1-5.44.06c-3.62-.16-5.38.85-5,5.11.39,4.57,3.14,3.85,5.86,3.43A29.7,29.7,0,0,0,231,249.83Zm19.91-20.1c-6.34-.74-8.58,3.41-10.24,8.42a2.28,2.28,0,0,0,.78,2.95c6,5.21,9.86,5.67,16.75,1.81,1.75-1,3.48-2,5.24-2.91,1.25-.67,2.24-1.47,1.74-3.11l1.58,0c5.66-.55,9.77-4.24,14.33-7l1.81-1c8.36-4.74,17.5-7.76,26.2-11.73,4.23-1.93,7.64-4.38,3.33-9.57-.68-.81-.28-2.53-.37-3.82l1.56.12c.59,1.89,1.12,3.81,1.78,5.67.55,1.55,1.67,2.16,3,1,6.63-5.69,14.46-9.64,21.48-14.76-.7,3,.06,4.29,3.47,4.92,5.84,1.08,11.39,1.32,17.23-.25,5.27-1.42,10.8-2,16.24-2.65a12.18,12.18,0,0,0,7.32-3.72c3.87-3.73,7.38-8.36,13.64-8.26l2,0a7.84,7.84,0,0,0,4.43,2c5.93.62,11.55.8,17.37-1.79,6.63-3,7.17-3.19,3.19-9.44a7.12,7.12,0,0,0-1.51-2c-5.92-4.28-6.58-10.91-7.47-17.27-1.13-8-3.05-10.47-11.14-12.17-2.92-.62-5.85-1.28-8.81-1.64-8.08-1-15.64-3.1-21.39-9.31-2.16-2.33-4.24-.76-6.38-.21l-1.18-1c2.07-1.4,1.22-1.93-.64-2.16q-20-2.5-40-5c-1.7-.21-2.84,0-3.82,2-2.62,5.4-1,10.12,1.44,14.87l-.94,1c-2.27-4-4.9-3.76-7.66-.55a18.33,18.33,0,0,0-3.24,4.38c-4.87,11.47-14,19.14-23.35,26.65-1.93,1.56-4.17,3-5.54,5-4,5.85-11.51,10.64-6.81,19.56l-1.38,0c-2.14-7.67-2.21-7.72-9.08-4.06-2.78,1.48-5.34,3.53-8.26,4.55-4.35,1.54-6.15,4.55-7,8.75q-1.65,7.77-3.85,15.42c-1.58,5.51-1.55,5.65,4.12,4.69ZM330.93,84.57c6.77-1.74,14.18-1.41,19.89-6.59,2.24-2,7.23-.46,7.86-3.76.56-2.93-1.39-6.35-2.24-9.55a22.81,22.81,0,0,1-.91-3.35c-.52-5-3.15-5.84-7.83-5.11C331.83,58.71,315.88,60.76,300,63c-.42.83-.84,1.66-1.25,2.5a16,16,0,0,0-16.17-1.56c-10.8,4.83-22.44,5.53-33.62,7.8-10.32,2.11-20.43,5.09-30.81,6.85-2.43.41-3.2,1.77-3.1,4.19q1.11,26.94,2,53.89c.09,2.85,1.45,3.38,3.81,3l0,1.2c-2.22.54-3.22,1.74-3.21,4.22a20.11,20.11,0,0,0,5.89,14.34c4.94,5.24,4.84,9.58,0,14.87a15.93,15.93,0,0,0-4.49,8.68c-.45,3.19.74,4.27,3.8,3.38l0,1.46c-3.36.5-4,2.51-3.8,5.67.73,13.45,1.4,26.91,1.65,40.37.09,4.43,1.48,6.09,5.78,5.47a11.35,11.35,0,0,1,3.49,0c4.56.79,6.4-1.58,8.59-5.4,7.24-12.57,5.46-28.56,15.49-40h1.37c-.13,1,.1,2.62,1.21,1.73,4.32-3.47,10.19-4.29,14.06-8.43l.16-1.32a2.54,2.54,0,0,0,3.43-1.07c4-6.72,9.86-11.63,15.5-16.79,0-.6.07-1.2.1-1.8,7.61-1.92,11.62-8.21,15.47-14,3.48-5.22,5.76-11.08,11.22-15,2-1.44,3-4.57-1.68-4.64l0-1.56c3.89-2.54,3.41-6.38,3.24-10.27-.51-11.27-.46-11.29,10.19-14,2-.51,3.81-.88,3.84-3.62,0-4.82.33-9.63.52-14.44.05-1.39,0-2.71-1.8-3Zm36.69,41.75c2.28.51,4-.52,4-2.93,0-2.58.36-5.43-1.35-7.7-6.18-8.14-7.08-17.74-7.5-27.39-.13-2.94-1.06-3.67-3.81-4.47-6.18-1.79-11.25,2.07-16.88,2.42-5,.32-6.73,2.51-6.07,7.19a14.8,14.8,0,0,1,0,2.49c-.14,3.82.68,8-.68,11.36-1.68,4.1-6.93,3-10.58,4.23-4.72,1.55-2.13,5.28-2.77,8-.69,2.84,1.63,3.14,3.72,3.31Zm23.24,80.41c11.25-.07,15.05-2.28,19.83-11,.71-1.3,1.84-2.41-.51-3.44a20.11,20.11,0,0,0-23.25,4.57c-2,2.1-6.85,3.51-4.82,7.05C383.73,206.71,388.24,206.53,390.86,206.73Zm44.52-31.38c-2.72.75-5.32-1.64-5.2,1.25.1,2.1.08,6,3.79,5.91,1.85,0,5.41.67,5.36-2.52C439.29,177.43,438.27,174,435.38,175.35Zm4.6,19.47a74.42,74.42,0,0,1-1.24-8.49c-.08-2.44-1.22-2.61-3.15-2.34-2.26.32-2.75,1.43-1.9,3.42C434.85,190.15,436.13,192.8,440,194.82ZM216,284.68c5.66-2.85,5.9-4.47,1.26-8.52C216.69,279,215.44,281.44,216,284.68Z"/><path class="cls-2" d="M0,158.91c4.06-1,8.09-2,10.49-5.89.16-.26.55-.38.76-.62,1.83-2.06,6.08-.56,6.66-4.26,1-6.3,3.32-12.57.92-19.06a3.77,3.77,0,0,0-1.68-2.33c-5.72-2.93-11-6.74-17.15-8.82v-2c3.2.52,5.68,2.58,8.41,4.06,8.59,4.68,8.52,4.73,9.84-4.64.46-3.26.76-6.56,2.21-9.63a9.15,9.15,0,0,0,.67-5.82c-.33-1.58-.86-2.68-3-2.27-6,1.15-12.73.5-16.45,7a1.11,1.11,0,0,1-1.7.28v-2c2-.32,2.79-2.21,4.1-3.41C5.74,98,7.46,96.74,9.77,96.76c4.94,0,10.56,1.06,8.77-7.61,5.12,11,5,10.95,2.32,21.29A36.27,36.27,0,0,0,21,130.88a19.38,19.38,0,0,1-.38,12.24,13.93,13.93,0,0,0-.84,5.39c.85,9.32-2.81,17.83-4.5,26.68-.35,1.85-.72,3.8.76,5.17s3.07-.22,4.56-.67,3-1.11,5.12-1.9c-.75,4.53-.16,8.73-4.84,10.71A3.4,3.4,0,0,0,19,191.76c-.26,4.15-.9,8.3-.8,12.43.12,5.08,4.09,7.13,8.13,8.92,2.13.94,4.7.06,6.64,1.69,0,.33,0,.67,0,1-3.12-.07-6.18-.23-9.13-1.58-2.71-1.24-4.39-5.58-6.88-4.73s-2.43,5.4-4.74,7.59l-1-.72c.64-1.33,1.22-2.69,1.93-4,1.54-2.8,1.71-4.25-2.35-5.07-3.62-.73-7.91-.19-10.81-3.44v-1c4.22,1,8.42,2.07,12.67,2.93,1.35.27,3.05.55,3.26-1.84.39-4.6,1.08-9.19,1.42-13.79s-1.2-7.43-6.41-7.2c-3.47.16-5.95-1.57-7.74-5,3.12.33,4.61,3.46,7.59,3.43,1.89,0,2.53.21,2.82-2.41.71-6.56.8-13.32,3.9-19.48,1-2.1,1.26-5.28-.3-6.6-1.9-1.62-4.59.05-5.93,2-2.83,4-6.75,5.1-11.28,5Zm23.12,24c0-.71.13-1.92-1-1.63-1.61.39-3.91.42-3.75,3,.07,1.05.33,2.58,1.93,2.32C22.15,186.3,22.83,184.74,23.12,182.92Z"/><path class="cls-2" d="M188.91,0c-.49,2.84-2.86,1.77-4.41,1.89C182,2.08,181,3,181,5.56q0,7.46-.42,14.92c-.14,2.48.88,3.85,3.18,4.15,2.88.37,1.9-2.13,2.22-3.46a78.8,78.8,0,0,0,2.18-17.46c2.67,2.72,1.58,5.17,1.41,7.42-1.05,13.41-6.63,25.59-10.37,38.28L178.14,48c.23-1.13.5-2.24.68-3.38.28-1.67,2-3.45.1-5s-4-1.28-6.4-.37c-9,3.38-18,6.59-25.61,12.6l-1.07-.93c5.87-5.43,12.89-8.73,20.42-11.09,3.93-1.23,8.07-2.2,8.49-7.51,1.58.86.92,2,1.17,2.84.5,1.76,2.12,2.08,3.49,2.43,1.86.49,1.94-1.35,2.47-2.46a9.87,9.87,0,0,0,1.05-2.79c.27-2.08,3.67-4.54-.44-6.16-3-1.16-6.09-2-6.17,4.26-1.81-3-1.55-4.79-.47-5.91,6-6.2,2.59-13.78,3.14-20.72.17-2.16-2.49-1.57-4-1.78-4-.57-8.37.78-12-2Z"/><path class="cls-2" d="M250.91,66c-3.31-1-3.49-4.46-5.35-6.61-1-1.2-1.54-3.24-3.69-2.71-4.39,1.09-5.9-1.8-7.32-5-1.14-2.58-2.27-5.17-3.64-7.64-1.46-2.65-3.58-5.19,1.07-6.87.84-.3,1-1.32.89-2.16-1-7.38-.41-14.9-2.1-22.23-1.17-5.09-4-8.51-8.94-10.29-1.11-.4-3.17-.25-2.93-2.48h7c5,5.88,17.62,10.5,22.92,8.42-2,3.5-3.24,4.12-6.87,2.74-2.79-1.06-5.41-2.56-8.11-3.83-.75-.35-1.58-.73-2.33-.08s-.33,1.54,0,2.26c3.92,8.34,1.35,17.44,3,26.05.11.6-.29,1.28-.32,1.93-.1,1.76-3.67,1.2-2.54,3.55,2.15,4.47,3.64,9.27,6.54,13.37a1.12,1.12,0,0,0,.86.44C247.78,53.52,248,61.2,250.91,66Z"/><path class="cls-2" d="M289.88,287.79c.16,4.41-3.19,4.56-6.07,4.5-4.21-.09-7.61-.06-6,5.81.3,1.07-.59,2.47-.93,3.72h-1c.07-1,.21-2,.19-3-.28-10.77-3.87-13.53-14.45-11.14a27.1,27.1,0,0,1-10.29.5,38.29,38.29,0,0,0-17.26,1.23c-.95.3-2.34.3-2.78.94-3.71,5.5-3.39.13-4.42-1.57,3.4-.65,6.8-1.32,10.21-1.93,4.76-.86,9.51-1.36,14.35-.39,4.35.88,8.6-.23,12.78-1.31a11.4,11.4,0,0,1,10.29,2.37C279.9,291.83,284.27,292,289.88,287.79Z"/><path class="cls-2" d="M458.79,185.89c-4-.42-7.94-1.54-12-1.13,0-.32,0-.64,0-1,2.25-1,4.29-2,2.3-5.06-1.17-1.79-.42-3.87-.47-5.84s1.38-4.26-.81-6l-.21-1.59c2.21-2.22,4.25-4.44,0-6.7l.11-1.46c3.87,1.22,6.39,2.63,3.89,7.63-1.47,2.94-1.5,6.77-1.56,10.21-.11,5.73,3.16,8.92,8.72,9.88Z"/><path class="cls-2" d="M458.79,251.85c-3.89.35-7,2.9-11.18,3.11-5.15.26-10,2.6-15.53.85-2.34-.74-5.43,1-7.5,3.12l-1.54,0c2.25-4.6,6.48-5.8,10.78-4.86,7.55,1.63,14.24-.83,21-3.18,1.47-.51,2.61-1.37,4,0Z"/><path class="cls-2" d="M458.79,273.84c-10.08,1.29-18.84,6.1-27.82,10.37-2,1-3.61,3-6.2,2.64,1.65-3,4.7-4.13,7.48-5.43,8.54-4,17-8.33,26.54-9.58Z"/><path class="cls-2" d="M142.93,0c-4.16,3.39-9.56,3-14.33,4.51-2.33.75-5,1.06-4.88,3.88.27,5.25-3.14,5.29-6.68,5.48-1.13.06-2.27,0-3.76,0,.48-.7.71-1.35,1-1.38,4.09-.37,8.21-.31,8.26-6.36,0-1.86,2.35-2.91,4.56-3.14a46.26,46.26,0,0,0,10.85-3Z"/><path class="cls-2" d="M370.78,280.72a78.78,78.78,0,0,0-8.36,8.48c-2.95,3.77-3.46,8.11-3.59,12.62h-2c.22-10.38,5.42-17.76,14-23.14C370.79,279.36,370.79,280,370.78,280.72Z"/><path class="cls-2" d="M4.77,237c-1.58-3.95-2-7.87.51-11.61-1.65-1.4-3.53-1.2-5.28-1.47v-2c6.24,3.25,8.06-2.53,11.24-5.51l1,.72c-3.69,6.1-8.52,11.83-6.41,19.8Z"/><path class="cls-2" d="M240.89,301.82c-.87-4.58-6.33-4.24-7.66-8.79,3.48,2.33,7.06,4.52,10.34,7.09.72.57-1.73.48-1.68,1.7Z"/><path class="cls-2" d="M312.86,301.82c-1.59-4.19-6.53-5.71-8-10,4.21,2.25,8.21,4.69,9,10Z"/><path class="cls-2" d="M341.84,0q0,4,0,8c-2.15-2.31-1.76-5.25-2-8Z"/><path class="cls-2" d="M173.92,301.82c0-.68,0-1.36,0-2,1.87-.1,2.63-1.41,3.18-2.93h1.46q-.81,2.49-1.6,5Z"/><path class="cls-2" d="M216.9,0c0,2.38-1.93,1.42-3.07,1.83L211.9,0Z"/><path class="cls-2" d="M458.79,74l-3,0c0-2.2,1.64-1.92,3-2Z"/><path class="cls-2" d="M435.8,0c0,.68,0,1.36,0,2-.91-.4-1.53-.93-1-2Z"/><path class="cls-2" d="M136.42,224.93c-1.12-4.32-1.34-9.19-3.56-12.84-4.27-7.05-2.94-14.44-2.92-21.78,0-3.59-1.39-4.54-4.7-4.47-4.81.11-9.46.33-14.14,2-5.81,2-12.14.93-18.17,1.91,0-.43,0-.86-.05-1.28,11.09-.59,21.78-4.52,33-4.06,3.51.14,4-1.36,3.87-4.49-.22-5.05-2-7.9-7.24-9.46-10.34-3.11-20.44-7-30.6-10.66-1.49-.54-3.32-.53-4.46-2.26,1.88-1.19,3.45.14,4.91.64,10.07,3.43,20.07,7.07,30.14,10.5,1.69.57,4,2.65,5.28.47,1.15-1.89-.39-4.2-1.94-5.78-2.63-2.69-5-5.67-4.73-9.52.19-3,0-6,.07-8.94l1.17-.07a17.49,17.49,0,0,1,.88,7.85c-.22,3.53.63,6.56,3.48,8.87a8.83,8.83,0,0,1,3.16,6.07c.31,3.42,2.17,4.69,5.09,5.74,16.42,5.89,32.78,12,49.18,17.92a46.2,46.2,0,0,0,7.19,2c2,.38,4.56,2,5.59-1.75.83-3,.85-5.16-3-5.62a2.91,2.91,0,0,1-2.85-3c.05-10.43.11-20.86.29-31.29.07-3.53,1.89-5.45,5.69-5.26,3.43.18,4.07-1.83,3.74-4.84-.43-3.87-1.13-7.77-.67-11.65l1.39-.12c.39,5.09.95,10.17,1.1,15.26.07,2.66-2.27,3.06-4.34,3-4-.18-5.35,2.2-5.39,5.57-.12,9.12,0,18.25-.13,27.37,0,2.64,1.54,3.39,3.62,3.87,2.87.66,3.92,2.33,2.7,5.12-1.75,4,.67,4.93,3.84,5.34l0,1.4c-6.07-.47-7.53.51-7.85,5.17a9.36,9.36,0,0,0,1.06,4.81c5.11,10.49,7.11,22.06,11.29,32.87l-1.41.33c-4.57-11-6.85-22.88-11.94-33.75a5.74,5.74,0,0,1-.44-3.86c2.05-6-1.5-6.72-6.16-8.27-17.16-5.71-34.09-12.11-51.11-18.25-5.72-2.07-5.81-2.06-5.19,3.82.81,7.63.48,15.26.32,22.89,0,1-.41,2.32.08,2.87,5,5.64,4.22,13,6.18,19.59Z"/><path class="cls-2" d="M133.21,231c-.47,6-4,9.5-9.49,11.33-3.71,1.24-3.18,2.93-1.28,5.74,4.64,6.89,10.64,12.85,14,20.56.81,1.83,2.22,3.76,2.1,5.56-.53,7.92,5.95,9.43,10.75,12.66,1.8,1.21,3.1-.31,4.62,0l.08,3-1.05.9c-3.36,3.82-9.3,4.57-11.71,9.39-2-3.41-5.08-4.29-7.9-1.16-2.16,2.38-4.15,2-6.74,1.6,4.43-1.6,7.56-5.53,12.57-5.57,2,0,1.58-1.64,1-3-1.32-2.78-1.43-5.77-1.68-8.76a40.5,40.5,0,0,0-8.53-22c-3.27-4.2-6.44-8.5-9.31-13-1.8-2.81-3.37-3-5.95-1.1-4.37,3.2-8.17,7-12.12,10.59-5.67,5.13-5.47,10.63-5.79,16.72-.09,1.8-.73,3.62.2,5.39h0c-2.79-1.28-1.76-3.88-1.85-5.93-.13-3.14.61-6.3-.14-9.44a2.59,2.59,0,0,1,1-3.09c7.39-4.43,10.58-13.6,19.21-16.74,3.3-1.2.25-3.21-.11-4.85l.9-1c1.62.87,1.65,3.73,4.43,3.23a13.48,13.48,0,0,0,10.64-11.17Zm11.4,63.49c2.6-.94,5.34-2.83,4.7-4.7-.88-2.59-4-4.18-6.94-4.72-1.84-.34-2,1.49-1.61,2.77C141.58,290.33,141.69,293.35,144.61,294.49Z"/><path class="cls-2" d="M254.08,193.92c.7-2.21,1.33-4.45,2.12-6.63,2-5.66,1.29-6.86-4.64-7.22.22-.18.43-.5.65-.51,9.86-.44,10.46-1.1,9.5-10.86a15.66,15.66,0,0,0-.9-4.37,111.74,111.74,0,0,1-7.57-26.75c-.42-3-1.54-3.62-4.66-2.83-9.17,2.3-18.46,4.08-27.7,6.07,0-.4,0-.8,0-1.2,7.56-1.77,15.12-3.53,22.67-5.33,9.73-2.32,15-10.41,13.34-20.43-.75-4.64-1.3-9.31-1.94-14l-.08.09a3,3,0,0,1,2,2.06c2.13,6.63,2.81,13.36.62,20.09-1.64,5-1,6.25,3.88,7a16.17,16.17,0,0,1,3.3,1.3,8,8,0,0,1-.92.2c-9.62.82-9.5.8-8,10.49a71.45,71.45,0,0,0,5.14,18.11c1.84,4.15,3.09,8.44,2.58,13-.34,3.13.36,5.54,4,6.09-1.39,2.07-3.26.94-4.74,1.29-2.64.62-4.07,1.45-3.91,4.54.19,3.59-2.46,6.43-3.38,9.77Z"/><path class="cls-2" d="M323.91,142.82c.88.62,1.71.4,2.75.19,3.74-.77,6.52.14,8.21,4.19,5,11.93,5.13,11.92,16.16,5.3a95.48,95.48,0,0,0,9.41-6.45c2.74-2.13,4.53-4.5,2.45-8.49s2.34-3.23,4-4.48l1.18,1c-2.22,1.23-4.46,2.4-2.41,5.54a2.2,2.2,0,0,1,.14,1.9c-2.35,3.93.17,6.32,2.59,8.84,1,1,2.25,1.95,2.47,3.55-3.44.11-4-3.32-6.05-5-1.34-1.07-2.09-2.23-4.11-.89-7.59,5-15.36,9.77-23,14.76-3.76,2.47-7.37,5.18-7.83,10.28a3.17,3.17,0,0,1-1.22,2c-10.68,7.57-15.29,16.32-15.11,28.81l-1.56-.12c.3-4.46.34-8.83,1.83-13.25,1.85-5.46,6.22-9.42,7.8-14.9,6.46-.25,6.59-6.88,10.13-10.08,6.49-5.89,6.31-5.86,3-14.18-1.83-4.61-3.72-8.26-9.67-5.83-1.07.43-1.64-.84-2.11-1.72Z"/><path class="cls-2" d="M370.78,280.72c0-.68,0-1.36,0-2-.17-6.22-8.27-13.54-14.08-12.87-3.82.43-7.41,1.09-10.67,3.49-2.73,2-4.6,1.18-9.65-3.08a3.13,3.13,0,0,1,3.3.41c3.1,2.07,5.72,1.4,8.62-.63,3.39-2.37,7.62-1.77,11.5-2.23,3.21-.38,3.95-2.71,2.82-4.39-2.25-3.33-2.4-8.58-7.75-9.45-.7-.12-1.28-1-1.91-1.53l1.11-.81c7.66,2.27,10,8.17,10.89,15.35.65,5,4.24,8.54,7.5,12.08,1.66,1.8,3.14,0,4.31-.89,4.6-3.59,9.86-3.37,14.63-1.53,5.05,1.95,9.22,1.59,13.67-1.1a93.85,93.85,0,0,1,8.5-4.12c.07.45.13.9.2,1.35-3.81,2-7.61,4-11.43,6-2.29,1.19-4.95,1.91-7.22.81C385.59,271,377.91,274.33,370.78,280.72Z"/><path class="cls-2" d="M111.11,122c.34-4.69-1.39-7.3-7.17-6.46,5.76-1.5,4.67-4.84,3.42-8.49-.62-1.8-1.24-4.13.83-5.45,1.88-1.19,1.67-2.6,1.27-4.26-1-4.1-.23-7.48,3.62-9.9,1.67-1,1.51-1.29-1.33-3.8,5.07-1.52,6.28-4.23,3.52-10.1-1.93-4.11-2.27-8.23-2.15-12.55l2,.08c-2,6.64,2.82,12,3.47,18.21.47,4.44-1.12,7.26-4.25,9.69-1.19.92-3.23,1.82-3,3.11,1.55,7.33-4.76,14.48-.21,21.9,1.4,2.3,2.54,5.14,1.23,8.1Z"/><path class="cls-2" d="M36.91,239.85c-1.79,3.54-3.4,7.11-3,11.27a31.05,31.05,0,0,1-3.17,17.29c-2,4.08,1.14,8.34,1.67,12.57.26,2.1,1.25,4.12,1.91,6.17,1.72,5.33-.05,9.77-5.37,13.41-.11-.26-.38-.7-.31-.76,8.83-8.12,1.52-16.71.57-25-.28-2.47-1.51-5.07-.12-7.24,3.57-5.57,3.43-11.76,3.08-17.83a12.73,12.73,0,0,1,3.54-9.87Z"/><path class="cls-2" d="M345.84,47.53a29,29,0,0,1-12.78-.35,91.68,91.68,0,0,0-9.75-1.59c-6.46-.7-6.54-.65-5.29-7a2.05,2.05,0,0,0-.88-2.44c-4.14-3.25-5.28-7.69-5.22-12.74,0-3.87-1.5-7-5.16-8.86,0-.48.05-1,.08-1.44,5.9,1.18,6.49,6.07,6.87,10.62s1,8.8,5.38,11.49c2.12,1.29,1.23,3,.33,4.72-1.2,2.34-.45,3.78,2.35,3.91,8.07.36,15.91,3.13,24.1,2.33Z"/><path class="cls-2" d="M241,263.81c11.38.93,22.63,1.84,34.21.84,6.87-.6,14.54-2.91,22.56,1-3.36,0-5.8.1-8.22,0-6.83-.32-13.69-.47-20.34,1.24-5.82,1.49-11.58.59-17.23-.14-4.67-.6-8.84-1.39-12.15,2.84l-.1-1.43c1.65-3.8-2-1.64-2.88-2.55a7.7,7.7,0,0,1,0-.83l2.9-1Z"/><path class="cls-2" d="M183.41,280.75c2.54,2.36,5.1,4.71,7.64,7.08s4.8,3.47,7.16-.38c.95-1.53,2.26-3.4,4.74-2.64-.87.95-1.77,1.86-2.6,2.85s-2.51,2.18-.9,3.65c1.26,1.14,2.73.9,3.7-.73,1.07-1.81,3.55-2.44,4-4.77h1.5c-.27.95-.24,2.39-.86,2.77-4.73,2.95-4.34,7.29-3.08,12.37-3.39-2.11-1.71-8.22-6.65-7.38-3.58.61-4.4,5.07-7.19,7.14-.23-.44-.54-.85-.48-.92,4.72-4.93,3.72-8.63-2-12.14-2.57-1.6-4.33-4.51-6.46-6.83Z"/><path class="cls-2" d="M388,36c2.05-6.17.39-11.83-2.54-18.6L382.6,27.62c.11-8.57,2-17,1.07-25.53l2-1.07a15.73,15.73,0,0,1-.11,3.44c-1.85,7.56,2,13.71,4.89,20.08,1.83,4-.48,7.64-.93,11.44Z"/><path class="cls-2" d="M366.82,219.94c4.87-.39,8,1.82,10.14,6.16,2.77,5.52,6.19,5.77,10,.75,1.41-1.88,2.82-3.1,5.13-3.25,1.4.22,2.9.21,3.72,1.71-1.37-1.33-3-.76-4.11,0-3.34,2.27-5.91,5.54-9.75,7.22-1.13.5-.63,2-.41,3.17.26,1.48,1.58,2.92.21,5-1-2.51-1.92-4.73-2.86-6.92-2.55-5.89-5.46-11.48-12.05-13.87Z"/><path class="cls-2" d="M314.92,132.64c-8.46,1.75-16.88,3.74-25.39,5.13a9.48,9.48,0,0,1-10.47-5.15,9.62,9.62,0,0,0-3.21-3.23c2.14-1,3.42-.49,4.31,1.53,2.12,4.8,6.08,5.76,10.75,4.87,8-1.51,16-3.13,24-4.71Z"/><path class="cls-2" d="M167.91,266.87c-2.34-3.1-4.68-2.87-7,0,.19-2.9.33-5.64,1.92-8.43,1.87-3.29-1.69-9.37-6.25-12.34-3.35-2.19-7.88-3.25-8.52-8.27l1.39,0c1.33,3.41,4.57,4.62,7.35,6.35,6,3.72,9.22,8.54,7.69,16.08-.5,2.49,3.55,3.2,4.41,5.62Z"/><path class="cls-2" d="M301.85,66.93a4.11,4.11,0,0,1,2.76,3.29c.51,2.63,2,3.08,4.29,2.73s4.35.3,5,2.93C315.31,81.75,319,84.35,325,84a34.27,34.27,0,0,1,5.93.6l-.06,1.21c-3-.11-6-.4-8.93-.29-5.21.19-7.79-2.75-9.14-7.24-.56-1.84-1.07-3.86-3.44-3.42C302.6,76.1,302.85,71,301.85,66.93Z"/><path class="cls-2" d="M43.73,47c-5.41-4.64-10.67-9.6-18.52-9.4C22,37.69,21.52,36,22.3,33.47c.84-2.75,1.52-5.46.21-8.25h3c-.39,2.6-.75,5.21-1.19,7.8-.54,3.19,2,2.22,3.5,2.67,6.86,2,13.27,4.66,17,11.32Z"/><path class="cls-2" d="M68,104c3.12,1.83,5.9,3.7,8.13,6.94s6.07,4.65,10.53,4.28c4.77-.4,9.74-1.21,15.26,1.4-6.56.79-12.19-.1-17.85.46-3.53.35-7.54-2-9.66-5.27a17.33,17.33,0,0,0-6.42-6Z"/><path class="cls-2" d="M281,229.89c-.58-6.07-1.17-12.14-.29-18.24.29-2,.26-3.56-2.22-4.68-3.25-1.47-3.48-4.9-3.54-8.1l1.38,0c1,2.83.12,7,5.39,6.74,1.85-.08,1.49,2.2,1.14,3.66-1.61,6.56-1.26,13.12,0,19.68Z"/><path class="cls-2" d="M441.8,83c-2.64-.32-5.27-.81-7.91-.92-4.44-.18-7.52,2.36-9.91,5.73a10.81,10.81,0,0,1-9.2,5c0-.48,0-1,0-1.44a12.35,12.35,0,0,0,8.41-5.53,12.29,12.29,0,0,1,12.61-5.36c2,.31,4,.29,6,.41C441.77,81.55,441.78,82.25,441.8,83Z"/><path class="cls-2" d="M391.84,52.93a65.17,65.17,0,0,1,4.25,5.47c2.45,3.9,5.43,6.29,10.42,6.34,4.28,0,7.53,3.08,11,5.28-2.17,1-3.43-.63-5-1.25s-3-2.07-4.48-2c-9.48.57-12.91-6.61-17.13-12.86Z"/><path class="cls-2" d="M331.77,209.08l25.88,7.54-.55,1.9-26.55-8.44Z"/><path class="cls-2" d="M103.67,40c-1.23-6.44-2.49-12.87-3.7-19.31a9.8,9.8,0,0,0-1.6-4.6l2.25-.14c2,7.91,3.72,15.87,4.15,24.05Z"/><path class="cls-2" d="M15.2,26.08c-1.15,4.63-2.39,9.14-6.51,12.27-4.57,3.49-.59,7.13.11,10.7l-.92,1.1c-4.67-8.81-4.67-8.92,2.26-15.88,2.29-2.3,2.45-5.19,2.56-8.14Z"/><path class="cls-2" d="M64.94,82.55a17.67,17.67,0,0,1,1.82-.61c1.42-.31,3.22-.43,3.68-1.89.56-1.76-1.85-1.9-2.46-3.15l1-1c2.25,1.37,4.36,2.7,7.26,1.15,1.69-.9,3.75-.4,5.64,1.13-6.9-1.55-10.45,6.18-16.94,5.54Z"/><path class="cls-2" d="M450.48,210.81c2.85,5.93,6.14,11.69,6.7,18.57L449,210.84Z"/><path class="cls-2" d="M226.87,283.13,246.36,279l.3,1.47c-6.26,2.2-12.91,2.83-19.43,4Z"/><path class="cls-2" d="M265.13,236.89c-1.59-8.7-8.45-6.9-14.27-7.16,0-.5,0-1,0-1.51a28.56,28.56,0,0,1,2.92-.28c9.57,0,9.57,0,12.91,9Z"/><path class="cls-2" d="M397.08,256.56l15.77,7.62v1.5c-6.09-1.74-11.33-5.23-16.82-8.19Z"/><path class="cls-2" d="M433.82,76.81c-5.24.35-8-3.88-12.29-6.75,5.44-.34,7.55,5.67,12.29,5.31Z"/><path class="cls-2" d="M442.79,11c4.42,4,5.66,9.51,6.79,15l-1.39,0C447.67,20.56,443.8,16.28,442.79,11Z"/><path class="cls-2" d="M289.81,168c-4.24-.73-7.73,2.13-11.82,2.3,3.51-2.71,7.27-4.67,11.92-4.1C289.88,166.83,289.84,167.43,289.81,168Z"/><path class="cls-2" d="M222.85,186.31c2.88-.93,5.71-2.12,8.91-1.61-2.69,1.86-5.79,2.44-8.88,3.07Z"/><path class="cls-2" d="M65,63.52c-3,.85-6.6-.5-9.07,2.4v-2c2.53-3.08,5.93-1.66,9-1.75Z"/><path class="cls-2" d="M270.72,187.21c-3.41-1-2.87-4.18-3.34-6.92,1.16,1.87,2.33,3.73,3.5,5.6Z"/><path class="cls-2" d="M433.38,159.85c.39,2.36.79,4.73,1.19,7.09l-1.34,0c-.41-2.35-.81-4.69-1.21-7Z"/><path class="cls-2" d="M300,63c-.59,1.92,1.78,2.42,1.92,4-1.85,1.19-2.18-.85-3.17-1.49C299.13,64.64,299.55,63.81,300,63Z"/><path class="cls-2" d="M187,78.87c.5.57,1.37,1.31.67,1.95s-1.16-.41-1.6-.94Z"/><path class="cls-2" d="M226.91,288.87c-1.13-.23-1.4-1.22-1.82-2.07l1.53,0C227,287.44,227.75,288,226.91,288.87Z"/><path class="cls-2" d="M397.76,185.87l0-1c1.13-.55,1.52.32,2,1Z"/><path class="cls-2" d="M424.83,286.8c.52,1.08-.25,1.66-.89,2.29-.07-.55-.15-1.1-.23-1.65Z"/><path class="cls-2" d="M204.9,283.91l-1-.06c-.17-.72.28-1.09.81-1.41C204.76,282.93,204.83,283.42,204.9,283.91Z"/><path class="cls-2" d="M296.88,283.85c-3.4-.51-4.18,3.59-7.05,4,1.92-4.35-.26-6.05-4.24-6.53-10.32-1.24-20.44-4.76-31-2.57-.34.07-.77-.27-2-.76a31.16,31.16,0,0,1,16.75-1c7.67,1.7,16,.73,23,5.49,1.16.8,2.19-.44,3.29-.45S297.43,282.51,296.88,283.85Z"/><path class="cls-2" d="M304.89,264.79c9,3.23,18.11.38,27.15.68C323,266.32,313.79,271,304.89,264.79Z"/><path class="cls-2" d="M339.07,231.94a10.94,10.94,0,0,0,5.68-1.15c2.31-1.09,3.78.27,4.95,2.05.51.78,1.41,1.83.25,2.57-1.78,1.12-1.53-.55-1.93-1.55-.86-2.16-2.5-1.63-4.14-1S340.51,234.88,339.07,231.94Z"/><path class="cls-2" d="M396,257.49c-2.75-2-5.43-4.15-7.32-7.13,3.58,1,5.84,3.81,8.38,6.2Z"/><path class="cls-2" d="M352.29,247.73a16.2,16.2,0,0,1-5.08-7.42c2.71,1.45,4.05,4.09,5.9,6.28Z"/><path class="cls-2" d="M387.91,249.38c-2.57-.92-4.91-1.95-5.08-5.09Z"/><path class="cls-2" d="M298.88,285.85a.92.92,0,0,1-1-1C298.83,284.52,299.16,284.88,298.88,285.85Z"/><path class="cls-2" d="M297.88,284.85a.93.93,0,0,1-1-1C297.83,283.52,298.17,283.87,297.88,284.85Z"/><path class="cls-2" d="M299.87,286.85a.92.92,0,0,1-1-1C299.82,285.53,300.15,285.88,299.87,286.85Z"/><path class="cls-2" d="M300.88,287.85a.91.91,0,0,1-1-1C300.82,286.53,301.13,286.91,300.88,287.85Z"/><path class="cls-2" d="M301.87,288.85a.89.89,0,0,1-1-1C301.79,287.55,302.13,287.9,301.87,288.85Z"/><path class="cls-2" d="M302.87,289.84c-.71,0-1-.32-1-1C302.79,288.56,303.13,288.91,302.87,289.84Z"/><path class="cls-2" d="M303.87,290.84c-.72,0-1.05-.31-1-1C303.79,289.56,304.11,289.92,303.87,290.84Z"/><path class="cls-2" d="M304.87,291.84q-1.08.06-1-1C304.78,290.57,305.11,290.92,304.87,291.84Z"/><polygon class="cls-2" points="366.82 219.9 366.74 219.78 366.82 219.94 366.82 219.9"/><path class="cls-2" d="M334.07,225.65l1,1-.69,1-1.08-1Z"/><path class="cls-2" d="M353,248.4a2.24,2.24,0,0,1-.69-.68l.82-1.13c.32.34.65.67,1,1Z"/><path class="cls-2" d="M335,226.7c.49.36.94.8.4,1.39-.09.1-.71-.28-1.09-.43Z"/><path class="cls-2" d="M72.52,215.57c2.5,5.9-3.26,9.26-4.21,14.12-.68-4.91,3.21-8.65,3.25-13.35Z"/><path class="cls-2" d="M74.94,289a26.77,26.77,0,0,1,2.82,1c2.7,1.27,5.29,3.47,8,3.69s2.83-4.51,6.13-5.6c-.27,2.9-2.29,4.57-3.38,6.68-1.54,3,2.42,3.49,2.58,5.74-4.14-1.21-4.14-1.21-7,.17,2.33-3.86.07-5.54-2.59-6.95-2.2-1.17-4.46-2.22-6.69-3.32C74.89,289.9,74.92,289.44,74.94,289Z"/><path class="cls-2" d="M63,250.93c-.19,8.73-.47,17.46-.46,26.46a35.7,35.7,0,0,1-1.14-6.06c-.14-6.82-2.07-13.82,1.62-20.34Z"/><path class="cls-2" d="M74.94,289c0,.46,0,.92-.07,1.38-3.46.48-7.62-2-10.15,2.43l-1.28,0a36.68,36.68,0,0,0,0-10.77,8.06,8.06,0,0,1,1.23.23C64.34,290.28,70.72,288,74.94,289Z"/><path class="cls-2" d="M63.44,292.82l1.28,0-2.2,7.84C60.9,297.58,62.69,295.3,63.44,292.82Z"/><path class="cls-2" d="M154.89,290.8a1.67,1.67,0,0,1,2.09,1C155.7,292.66,155.12,292.09,154.89,290.8Z"/><path class="cls-2" d="M63,251l.22-.31-.24.25Z"/><path class="cls-2" d="M154,289.77l.94,1.08c-.72.56-1.35.16-2-.18Z"/><polygon class="cls-2" points="96.97 279.84 97.13 280.02 96.95 279.85 96.97 279.84"/><path class="cls-2" d="M306.84,13.12c0,.48-.06,1-.08,1.44-.72-.37-2-.63-2.08-1.11-.62-3.43-2.57-6.14-4.33-9-.42-.68-.63-1.54.31-2.12C304.33,5,304.8,9.52,306.84,13.12Z"/><path class="cls-2" d="M250.15,7.84C253,4.26,256.89,4,261.09,4.47Z"/><path class="cls-2" d="M437.78,4a4.22,4.22,0,0,1,3,4C438.42,7.69,437.74,6.11,437.78,4Z"/><path class="cls-2" d="M440.79,8a2.56,2.56,0,0,1,2,3C440.89,10.83,440.23,9.82,440.79,8Z"/><path class="cls-2" d="M435.76,2c1.66-.29,2,.74,2.06,2C436.25,4.22,436,3.14,435.76,2Z"/><path class="cls-2" d="M408.84,294.84c-3.52,2.88-7.27,5.25-12.16,5.23l11.17-6.16Z"/><path class="cls-2" d="M408.84,294.84l-1-.93,1.74-1.31.92.8Z"/><path class="cls-2" d="M410.59,291.62l1.54-1.45.91.92-1.68,1.52Z"/><path class="cls-2" d="M409.59,292.6l1-1,.77,1-.85.79Z"/><path class="cls-2" d="M451.4,264c-9.24,4.21-18.77,1.9-28.23,1.47C432.51,263.7,442.06,266,451.4,264Z"/><path class="cls-2" d="M455.83,73.93c-1,2.16-3.07,2.55-5.07,3.06C451.48,74.36,453.57,74,455.83,73.93Z"/><path class="cls-2" d="M177.06,296.85c-5.91-6.43-5.83-10.85.28-15.08l1.64.08c-1.3,1.68-3.45,2.75-4,5-.61,2.58-1.29,5.27,1.94,6.87,1.22.61,2.22,1.53,1.56,3.16Z"/><path class="cls-2" d="M183.41,280.75l-1.43.06-3.1.05c0-1.36,0-2.71,0-4.07C180.9,277.54,182,279.28,183.41,280.75Z"/><path class="cls-2" d="M179,281.85l-1.64-.08,1.6-1a4.43,4.43,0,0,1,.26.69C179.21,281.6,179.06,281.73,179,281.85Z"/><path class="cls-2" d="M167.87,297.81c2.51-.75,4.36.47,6.1,2C171.44,300.68,169.63,299.33,167.87,297.81Z"/><path class="cls-2" d="M188.12,82.06c10.15,6.26,16.37,30.13,11.37,43C198.86,109.91,200.1,94.27,188.12,82.06Z"/><path class="cls-2" d="M122.32,144.82l-1.17.07q-4.62-9-9.23-18a2,2,0,0,1,2.58.93C117.17,133.46,119.73,139.15,122.32,144.82Z"/><path class="cls-2" d="M111.11,122l1.26.08c-.13,1.65-.26,3.29-.4,4.94C110,125.58,111,123.7,111.11,122Z"/><path class="cls-2" d="M254.93,99.89c-4.1.43-5.37-1.3-7.52-5.21-2.94-5.34-.33-10.06-1.54-14.88-.82-3.25,3.23-4.12,4.3-6.91C246.51,83,245,92.53,254.85,100Z"/><path class="cls-2" d="M274.4,173.48c-.58.47-1.23,1.44-1.87.36-.38-.66.54-1,1.16-1.15Z"/><path class="cls-2" d="M276.15,172.17l-1.76,1.31-.7-.79c.59-.41,1.18-.82,1.76-1.24Z"/><path class="cls-2" d="M275.45,171.45l1.26-.26c-.19.32-.37.65-.56,1Z"/><path class="cls-2" d="M87,82.92c1.56,6.66,5,4.72,8.84,2.79,2-1,4.33-2.66,7.16-.3-3.24,1-6.17,1.79-9,2.87C87.85,90.61,87.22,90.24,87,82.92Z"/><path class="cls-2" d="M373.81,98.06a3.54,3.54,0,0,1,3.66,3.88A17.27,17.27,0,0,0,379,108.6c1.45,3.56-2.56,4.37-4.17,6.41,0-.55,0-1.11-.08-1.66,2.38-3.33,1.84-10.65-1-14Z"/><path class="cls-2" d="M414.77,91.33c0,.48,0,1,0,1.44-9-.28-17.76,4-26.94,2,0-.47,0-.94,0-1.41C397,95.24,405.72,90.81,414.77,91.33Z"/><path class="cls-2" d="M387.88,93.38c0,.47,0,.94,0,1.41-3.47.06-7-.1-10.4.28A5.39,5.39,0,0,0,373,97.86l-1.47-.12c-2.18-1.16-.15-1.64.43-2.06C376.84,92.12,382.35,92.6,387.88,93.38Z"/><path class="cls-2" d="M371.52,97.74l1.47.12a1.94,1.94,0,0,1,.82.2l-.09,1.28C372.87,99,371.41,99.43,371.52,97.74Z"/><path class="cls-2" d="M374.76,113.35c0,.55.05,1.11.08,1.66l-1-.06Z"/><path class="cls-2" d="M378.85,162.92C370.28,166.16,363.48,172,358,179c-3.65,4.72-7.12,9.2-12.83,11.35-2.25.84-3.3,2.61-4.26,4.57l-1,0c-.33-2.91,1.05-4.69,3.68-5.68,5.67-2.13,9.66-6.18,12.77-11.24,3.59-5.81,9.32-9.33,14.67-13.15,3.45-2.47,5.1-4.42,1.09-7.72-.83-.68-2.36-1.57-1.29-3.23A27.74,27.74,0,0,1,378.85,162.92Z"/><path class="cls-2" d="M386.85,171.92c-3.65-1-5.31-4.08-7.05-7C383.5,165.88,385.1,169,386.85,171.92Z"/><path class="cls-2" d="M395.85,181.91c-3.7-1-5.31-4.08-7.06-7C392.44,175.93,394,179,395.85,181.91Z"/><path class="cls-2" d="M396.83,183.93c-.9-.42-1.81-.83-1-2.07C396.71,182.27,397.55,182.71,396.83,183.93Z"/><path class="cls-2" d="M388.83,174.93c-.9-.41-1.89-.78-1-2.07C388.71,173.28,389.52,173.73,388.83,174.93Z"/><path class="cls-2" d="M379.84,164.93c-.9-.41-1.88-.78-1-2.06C379.74,163.27,380.61,163.69,379.84,164.93Z"/><path class="cls-2" d="M387.86,172.92c-1,.3-1.28-.12-1.06-1A1,1,0,0,1,387.86,172.92Z"/><path class="cls-2" d="M397.84,184.92a1,1,0,0,1-1-1C397.74,183.62,398,184,397.84,184.92Z"/><path class="cls-2" d="M339.9,194.9l1,0c-.14.59-.28,1.21-1.14,1C339.83,195.58,339.87,195.24,339.9,194.9Z"/><path class="cls-2" d="M161,266.82c-3.4,3.55-2.9,8-2.91,12.37,0,2.69-.14,5.36-3.14,6.67.74-4.5,2.61-8.72,1-13.67C155.12,269.75,158.11,267.58,161,266.82Z"/><path class="cls-2" d="M155,285.81c0,.69-.32,1.07-1,1.05C153.78,286,154,285.55,155,285.81Z"/><path class="cls-2" d="M179,276.85c-1.28.84-1.64-.19-2.1-1C178.28,274.71,178.48,276.09,179,276.85Z"/><path class="cls-2" d="M208.92,276.79c.73,1.23-.06,1.7-1,2.09C207.14,277.64,208,277.19,208.92,276.79Z"/><path class="cls-2" d="M203.93,283.81c.11.82-.38,1-1.05,1.06C202.65,283.94,203.19,283.78,203.93,283.81Z"/><path class="cls-2" d="M209.93,275.8c.23.95-.12,1.31-1.07,1.07C208.92,276.22,209.22,275.81,209.93,275.8Z"/><path class="cls-2" d="M167.91,266.87l1-1c1.19,1.2,2.83,2.06,3.07,4C169.61,270.22,169.14,268,167.91,266.87Z"/><path class="cls-2" d="M209.87,259.09c4.09-1.36,1.5-4,1.24-6.27l1.46-.09A2.5,2.5,0,0,0,215,254l1,.84c-2.45,2.82-4,5.79-2.28,9.67.67,1.5-.52,1.45-1.55,1.13-.59-1.8-.59-3.87-2.28-5.19Z"/><path class="cls-2" d="M226.94,255.82a3.24,3.24,0,0,1-2.07,3.08C224.66,257.27,224.77,255.85,226.94,255.82Z"/><path class="cls-2" d="M215.92,254.86l-1-.84,1-.21a4.33,4.33,0,0,1,.21.7C216.15,254.62,216,254.74,215.92,254.86Z"/><path class="cls-2" d="M231.86,247.88c.1-1.28.27-2.49,2.08-2C233.68,247,233.48,248.14,231.86,247.88Z"/><path class="cls-2" d="M230.88,249.89c-.64-1.18,0-1.74,1-2.08C232.43,248.94,232,249.56,230.88,249.89Z"/><path class="cls-2" d="M205.88,255.8c1.15.72,2.31,1.43,2.05,3.09C206.16,258.58,205.3,257.67,205.88,255.8Z"/><path class="cls-2" d="M209.87,259.09l-.06,1.38c-.8-.38-1.81-.49-1.95-1.64C208.6,258.38,209.23,258.76,209.87,259.09Z"/><path class="cls-2" d="M203.89,251.8a1.61,1.61,0,0,1,1.05,2.09C203.61,253.68,203.1,253.07,203.89,251.8Z"/><path class="cls-2" d="M204.89,253.81c1.09.32,1.16,1.15,1.05,2.09C204.62,255.69,204.43,254.91,204.89,253.81Z"/><path class="cls-2" d="M212.57,252.73l-1.46.09c-.58-1.63-2.26-3-1.22-5C211.55,249,211.8,251,212.57,252.73Z"/></g></g></g></svg>